<svg version="1" xmlns="http://www.w3.org/2000/svg" width="682.667" height="682.667" viewBox="0 0 512.000000 512.000000"><path d="M1 99.4c0 .4 6.4 16.4 8.5 21.1.7 1.6 2.2 5.3 3.4 8.2 1.1 2.8 2.6 6.4 3.3 8 .6 1.5 1.2 3 1.3 3.3.2.5.6 1.6 6.1 14.7 2 4.8 6.1 14.9 9.1 22.3s6 14.8 6.7 16.5c.7 1.6 2.3 5.5 3.6 8.5 1.3 3 2.9 6.8 3.6 8.5.7 1.6 2.2 5.5 3.4 8.5 3.5 9 11 27.1 13.6 32.8 1.3 2.9 2.4 5.5 2.4 5.9 0 .3 1.5 4.2 3.4 8.7 1.9 4.5 6.2 14.8 9.6 23.1 3.3 8.2 6.5 15.9 6.9 17 3.1 7.1 4.4 10.2 8.5 20.5 2.6 6.3 5.1 12.4 5.6 13.5.5 1.1 2 4.7 3.3 8 1.4 3.3 4.4 10.5 6.7 16s4.3 10.4 4.4 11c.2.5.9 2.3 1.6 4 3.1 7.1 4.9 11.7 9.1 22.2 3.9 10.1 4.7 11.3 6.9 11.3 1.4.1 51.5.2 111.4.3 108 .2 108.8.2 109.6-1.8.4-1.1 2-4.7 3.5-8 3.9-8.9 4.8-10.9 10-23 2.6-6.1 5.6-13 6.7-15.5 1.1-2.5 3.3-7.7 5-11.5 1.7-3.9 4.4-9.8 5.9-13.3 1.6-3.5 2.9-6.8 2.9-7.5 0-.7.7-2.1 1.5-3.1.8-1.1 1.5-2.8 1.5-3.8s.4-1.8.9-1.8 1.2-1.2 1.6-2.7c.3-1.5 2.2-6 4.1-10 1.9-4 3.4-7.5 3.4-7.7 0-.4 17.1-40.1 19-44.1.5-1.1 2.3-5.2 3.9-9 1.7-3.9 3.4-6.9 3.8-6.9.8.2 37.4 11.9 65.2 21 9.1 2.9 16.7 5.2 16.9 4.9.3-.2-.6-2.6-1.8-5.2-1.3-2.6-3.9-8.2-5.9-12.3-1.9-4.1-3.6-7.7-3.6-8-.1-.3-1.7-3.9-3.7-8-7.8-16.4-40.5-86-46.3-98.5-5.2-11.2-10.5-22.5-14.2-30.2l-3.4-7.1-4.9-.4c-2.8-.1-5 0-5 .3 0 .4-1.7.3-3.7 0-2.1-.4-36.2-.8-75.8-1l-72-.3-8.4 20.4c-9.7 23.6-12.5 30.3-17.2 41.3-1.9 4.4-3.4 8.2-3.5 8.5 0 .3-.5 1.6-1.1 3-4.9 11.6-17.5 42.1-24.2 58.5-4.6 11-8.6 20.9-9.1 22-3.3 7.4-5.1 11.9-7.6 18-1.5 3.8-4 9.9-5.7 13.5l-2.9 6.5-1.3-3.5c-.7-1.9-1.6-4.4-2.1-5.5-.4-1.1-.8-2.2-.9-2.5-.1-.3-.6-1.6-1.3-3-.6-1.4-3.6-9-6.7-17s-6-15.4-6.5-16.5c-1.2-2.8-9.6-24.2-13.7-35-1.8-5-4-10.4-4.8-12.2-.8-1.7-1.5-3.4-1.5-3.8 0-.4-.7-2.3-1.6-4.3-2.1-4.8-2.2-5.1-9.4-23.7-3.4-8.8-7.1-17.9-8.1-20.2-1-2.4-1.9-4.7-1.9-5.2s-1.1-3.4-2.5-6.5-2.2-5.6-1.9-5.6c.4 0 .2-.6-.4-1.3-.5-.6-3.1-6.7-5.7-13.5L113.7 99H57.4c-31 0-56.4.2-56.4.4z"/></svg>